<svg width="39" height="36" viewBox="0 0 39 36" fill="none" xmlns="http://www.w3.org/2000/svg">
<path d="M12 6H9V9H12V6Z" fill="#FF0000"/>
<path d="M12 9H9V12H12V9Z" fill="#FF0000"/>
<path d="M15 12H12V15H15V12Z" fill="#FF0000"/>
<path d="M18 9H15V12H18V9Z" fill="#FF0000"/>
<path d="M15 6H12V9H15V6Z" fill="#FF0000"/>
<path d="M9 9H6V12H9V9Z" fill="#FF0000"/>
<path d="M9 12H6V15H9V12Z" fill="#FF0000"/>
<path d="M9 15H6V18H9V15Z" fill="#FF0000"/>
<path d="M18 6H15V9H18V6Z" fill="#FF0000"/>
<path d="M12 15H9V18H12V15Z" fill="#FF0000"/>
<path d="M12 18H9V21H12V18Z" fill="#FF0000"/>
<path d="M15 15H12V18H15V15Z" fill="#FF0000"/>
<path d="M15 18H12V21H15V18Z" fill="#FF0000"/>
<path d="M15 21H12V24H15V21Z" fill="#FF0000"/>
<path d="M18 15H15V18H18V15Z" fill="#FF0000"/>
<path d="M18 12H15V15H18V12Z" fill="#FF0000"/>
<path d="M18 21H15V24H18V21Z" fill="#FF0000"/>
<path d="M18 18H15V21H18V18Z" fill="#FF0000"/>
<path d="M18 24H15V27H18V24Z" fill="#FF0000"/>
<path d="M27 6H30V9H27V6Z" fill="#FF0000"/>
<path d="M27 9H30V12H27V9Z" fill="#FF0000"/>
<path d="M24 9H27V12H24V9Z" fill="#FF0000"/>
<path d="M27 12H30V15H27V12Z" fill="#FF0000"/>
<path d="M24 12H27V15H24V12Z" fill="#FF0000"/>
<path d="M21 9H24V12H21V9Z" fill="#FF0000"/>
<path d="M24 6H27V9H24V6Z" fill="#FF0000"/>
<path d="M30 9H33V12H30V9Z" fill="#FF0000"/>
<path d="M30 12H33V15H30V12Z" fill="#FF0000"/>
<path d="M30 15H33V18H30V15Z" fill="#FF0000"/>
<path d="M21 6H24V9H21V6Z" fill="#FF0000"/>
<path d="M27 15H30V18H27V15Z" fill="#FF0000"/>
<path d="M27 18H30V21H27V18Z" fill="#FF0000"/>
<path d="M24 15H27V18H24V15Z" fill="#FF0000"/>
<path d="M24 18H27V21H24V18Z" fill="#FF0000"/>
<path d="M24 21H27V24H24V21Z" fill="#FF0000"/>
<path d="M21 15H24V18H21V15Z" fill="#FF0000"/>
<path d="M21 12H24V15H21V12Z" fill="#FF0000"/>
<path d="M21 21H24V24H21V21Z" fill="#FF0000"/>
<path d="M21 18H24V21H21V18Z" fill="#FF0000"/>
<path d="M21 24H24V27H21V24Z" fill="#FF0000"/>
<path d="M21 9H18V12H21V9Z" fill="#FF0000"/>
<path d="M21 15H18V18H21V15Z" fill="#FF0000"/>
<path d="M21 12H18V15H21V12Z" fill="#FF0000"/>
<path d="M21 21H18V24H21V21Z" fill="#FF0000"/>
<path d="M21 18H18V21H21V18Z" fill="#FF0000"/>
<path d="M21 24H18V27H21V24Z" fill="#FF0000"/>
<path d="M21 27H18V30H21V27Z" fill="#FF0000"/>
</svg>